<svg width="650" height="384" xmlns="http://www.w3.org/2000/svg" style="">
 <!-- Generator: Sketch 3.0.4 (8054) - http://www.bohemiancoding.com/sketch -->
 <title>IPAD 2</title>
 <desc>Created with Sketch.</desc>
 <defs>
  <linearGradient id="svg_68" x1="0.109375" y1="0.863281" x2="1" y2="0.046875">
   <stop stop-color="#4b4b4c" offset="0.175781"></stop>
   <stop stop-color="#b4b4b3" offset="0.789063"></stop>
  </linearGradient>
  <radialGradient id="svg_70" spreadMethod="pad" cx="0.511719" cy="0.445313">
   <stop stop-color="#4b4b4c" offset="0.125"></stop>
   <stop stop-color="#b4b4b3" offset="1"></stop>
  </radialGradient>
 </defs>
 <g>
  <title>background</title>
  <path width="652" height="386" id="canvas_background" fill="none" d="M-1 -1 L651 -1 L651 385 L-1 385 Z" class="GUGJbTih_0"></path>
 </g>
 <g>
  <title>Layer 1</title>
  <g id="Page-1" fill="none" fill-rule="evenodd">
   <g id="Laptop" stroke="#8492A5">
    <path d="m557.84919,14.5137l-462.1836,0c-12.57573,0 -23.29555,10.70905 -23.29555,23.97351l0,315.49144l508.7747,0l0,-315.49144c-0.00003,-13.26543 -10.68103,-23.97351 -23.29555,-23.97351z" id="bezel" stroke-width="0" fill="url(#svg_68)" stroke-opacity="0" stroke="#000000" class="GUGJbTih_1"></path>
    <path id="webcam" stroke-width="2" stroke="null" fill="url(#svg_68)" d="M323.69673,22.005482A3.745703,3.745703 0,1,1 331.188136,22.005482A3.745703,3.745703 0,1,1 323.69673,22.005482" class="GUGJbTih_2"></path>
    <g id="bottom" stroke="null">
     <path d="m602.57552,385.01548l-552.04538,0c-28.69864,0 -48.0274,-10.516 -48.0274,-14.988l0,-13.594c0,-1.344 1.25013,-2.428 2.80459,-2.428l642.49005,0c1.55634,0 2.80835,1.084 2.80835,2.428l0,14.129c-0.00656,3.535 -14.97439,14.453 -48.03021,14.453z" id="Shape" stroke-width="2" fill="url(#svg_68)" stroke="null" class="GUGJbTih_3"></path>
     <path d="m2.97095,368.50548l645.89273,0" id="Line" stroke-linecap="square" stroke="null" fill="url(#svg_70)" class="GUGJbTih_4"></path>
    </g>
    <path id="screen" fill="url(#svg_68)" width="469.218397" height="292.009" stroke="null" d="M91.463175 42.005482 L560.681572 42.005482 L560.681572 334.01448200000004 L91.463175 334.01448200000004 Z" class="GUGJbTih_5"></path>
    <path d="m396.73793,355.00548l0,3.087c0,2.201 -4.05779,2.86571 -7.12927,2.86571l-126.01614,0c-3.2316,0 -7.31844,-0.66371 -7.31844,-2.86571l0,-3.087" id="touchpad" fill="url(#svg_68)" stroke="null" class="GUGJbTih_6"></path>
    <path d="m555.13198,17.02741l-456.24648,0c-12.41418,0 -22.99629,10.59802 -22.99629,23.72498l0,312.22077l502.23906,0l0,-312.22077c-0.00002,-13.12792 -10.54381,-23.72498 -22.99629,-23.72498z" id="svg_69" stroke-width="0" fill="#000000" stroke="#000000" stroke-opacity="0" class="GUGJbTih_7"></path>
   </g>
   <path fill="#DDDDDD" stroke-width="1.5" width="469.057186" height="292.092417" id="svg_1" stroke="#000" d="M91.979622 41.908295 L561.0368080000001 41.908295 L561.0368080000001 334.000712 L91.979622 334.000712 Z" class="GUGJbTih_8"></path>
   <path fill="#ffffff" stroke="#000" stroke-width="1.5" stroke-opacity="null" width="469.057187" height="27.148004" id="svg_2" d="M91.979621 43.416517 L561.036808 43.416517 L561.036808 70.564521 L91.979621 70.564521 Z" class="GUGJbTih_9"></path>
   <path fill="#ffffff" stroke-width="1.5" stroke-opacity="null" width="222.714199" height="245.337512" id="svg_3" stroke="#000" d="M99.520728 79.61386 L322.234927 79.61386 L322.234927 324.951372 L99.520728 324.951372 Z" class="GUGJbTih_10"></path>
   <path fill="#ffffff" stroke-width="1.5" width="225.730638" height="245.337512" id="svg_4" stroke="#000000" d="M328.2678 79.111119 L553.9984380000001 79.111119 L553.9984380000001 324.448631 L328.2678 324.448631 Z" class="GUGJbTih_11"></path>
   <path fill="#3ecf8e" stroke-width="1.5" id="svg_5" stroke="#3ecf8e" d="M523.833991,55.985038A7.541112,7.038372 0,1,1 538.916215,55.985038A7.541112,7.038372 0,1,1 523.833991,55.985038" class="GUGJbTih_12"></path>
   <path fill="none" stroke="#3ecf8e" stroke-width="1.5" id="svg_8" stroke-linejoin="null" stroke-linecap="null" d="M108.012511,53.974075L125.105699,53.974075" class="GUGJbTih_13"></path>
   <path fill="none" stroke-width="1.5" id="svg_9" stroke-linejoin="null" stroke-linecap="null" stroke="#3ecf8e" d="M108.012511,64.473989L125.105699,64.473989" class="GUGJbTih_14"></path>
   <path fill="none" stroke-width="1.5" id="svg_13" stroke-linejoin="null" stroke-linecap="null" stroke="#3ecf8e" d="M108,58.502741L125.105699,58.502741" class="GUGJbTih_15"></path>
   <path fill="#DDDDDD" stroke="#DDDDDD" stroke-width="1.5" width="194.057957" height="13.574002" id="svg_17" d="M 115.597477,96.707044 L 305.655434,96.707044 A 2,2,0,0,1,307.655434,98.707044 L 307.655434,108.281046 A 2,2,0,0,1,305.655434,110.281046 L 115.597477,110.281046 A 2,2,0,0,1,113.597477,108.281046 L 113.597477,98.707044 A 2,2,0,0,1,115.597477,96.707044" class="GUGJbTih_16"></path>
   <path fill="#0000bf" stroke="#0000bf" stroke-width="1.5" width="202.604551" height="11.060298" id="svg_18" d="M 111.57555,121.341345 L 310.180101,121.341345 A 2,2,0,0,1,312.180101,123.341345 L 312.180101,130.401643 A 2,2,0,0,1,310.180101,132.401643 L 111.57555,132.401643 A 2,2,0,0,1,109.57555,130.401643 L 109.57555,123.341345 A 2,2,0,0,1,111.57555,121.341345" class="GUGJbTih_17"></path>
   <path fill="#BBBBBB" stroke="#BBBBBB" stroke-width="1.5" width="185.511363" height="8.546594" id="svg_19" d="M 128.165997,163.964682 L 309.67736,163.964682 A 2,2,0,0,1,311.67736,165.964682 L 311.67736,170.511276 A 2,2,0,0,1,309.67736,172.511276 L 128.165997,172.511276 A 2,2,0,0,1,126.165997,170.511276 L 126.165997,165.964682 A 2,2,0,0,1,128.165997,163.964682" class="GUGJbTih_18"></path>
   <path fill="#BBBBBB" stroke="#BBBBBB" stroke-width="1.5" width="185.511363" height="8.546594" id="svg_20" d="M 128.165997,144.970163 L 309.67736,144.970163 A 2,2,0,0,1,311.67736,146.970163 L 311.67736,151.516757 A 2,2,0,0,1,309.67736,153.516757 L 128.165997,153.516757 A 2,2,0,0,1,126.165997,151.516757 L 126.165997,146.970163 A 2,2,0,0,1,128.165997,144.970163" class="GUGJbTih_19"></path>
   <path fill="#BBBBBB" stroke="#BBBBBB" stroke-width="1.5" width="185.511363" height="8.546594" id="svg_21" d="M 128.165997,183.964682 L 309.67736,183.964682 A 2,2,0,0,1,311.67736,185.964682 L 311.67736,190.511276 A 2,2,0,0,1,309.67736,192.511276 L 128.165997,192.511276 A 2,2,0,0,1,126.165997,190.511276 L 126.165997,185.964682 A 2,2,0,0,1,128.165997,183.964682" class="GUGJbTih_20"></path>
   <path fill="#BBBBBB" stroke="#BBBBBB" stroke-width="1.5" width="185.511363" height="8.546594" id="svg_22" d="M 128.165997,203.964682 L 309.67736,203.964682 A 2,2,0,0,1,311.67736,205.964682 L 311.67736,210.511276 A 2,2,0,0,1,309.67736,212.511276 L 128.165997,212.511276 A 2,2,0,0,1,126.165997,210.511276 L 126.165997,205.964682 A 2,2,0,0,1,128.165997,203.964682" class="GUGJbTih_21"></path>
   <path fill="#BBBBBB" stroke="#BBBBBB" stroke-width="1.5" width="185.511363" height="8.546594" id="svg_23" d="M 128.165997,223.964682 L 309.67736,223.964682 A 2,2,0,0,1,311.67736,225.964682 L 311.67736,230.511276 A 2,2,0,0,1,309.67736,232.511276 L 128.165997,232.511276 A 2,2,0,0,1,126.165997,230.511276 L 126.165997,225.964682 A 2,2,0,0,1,128.165997,223.964682" class="GUGJbTih_22"></path>
   <path fill="#BBBBBB" stroke="#BBBBBB" stroke-width="1.5" width="185.511363" height="8.546594" id="svg_24" d="M 128.165997,243.964682 L 309.67736,243.964682 A 2,2,0,0,1,311.67736,245.964682 L 311.67736,250.511276 A 2,2,0,0,1,309.67736,252.511276 L 128.165997,252.511276 A 2,2,0,0,1,126.165997,250.511276 L 126.165997,245.964682 A 2,2,0,0,1,128.165997,243.964682" class="GUGJbTih_23"></path>
   <path fill="#BBBBBB" stroke="#BBBBBB" stroke-width="1.5" width="185.511363" height="8.546594" id="svg_25" d="M 128.165997,263.964682 L 309.67736,263.964682 A 2,2,0,0,1,311.67736,265.964682 L 311.67736,270.511276 A 2,2,0,0,1,309.67736,272.511276 L 128.165997,272.511276 A 2,2,0,0,1,126.165997,270.511276 L 126.165997,265.964682 A 2,2,0,0,1,128.165997,263.964682" class="GUGJbTih_24"></path>
   <path fill="#BBBBBB" stroke="#BBBBBB" stroke-width="1.5" width="185.511363" height="8.546594" id="svg_26" d="M 128.165997,283.964682 L 309.67736,283.964682 A 2,2,0,0,1,311.67736,285.964682 L 311.67736,290.511276 A 2,2,0,0,1,309.67736,292.511276 L 128.165997,292.511276 A 2,2,0,0,1,126.165997,290.511276 L 126.165997,285.964682 A 2,2,0,0,1,128.165997,283.964682" class="GUGJbTih_25"></path>
   <path fill="#FFFA8D" stroke="#FFFA8D" stroke-width="1.5" d="m114.31608,151.43633l-3.5737,2.37445l1.36609,-3.84091l-3.5729,-2.37445l4.41644,0.00073l1.1738,-3.30267l0.19148,-0.5364l1.36367,3.83834l4.41765,0l-3.57451,2.37445l1.36649,3.84201l-3.57451,-2.37555l0,0z" id="svg_27" class="GUGJbTih_26"></path>
   <path fill="#FFFA8D" stroke="#FFFA8D" stroke-width="1.5" d="m114.31608,171.43633l-3.5737,2.37445l1.36609,-3.84091l-3.5729,-2.37445l4.41644,0.00073l1.1738,-3.30267l0.19148,-0.5364l1.36367,3.83834l4.41764,0l-3.5745,2.37445l1.36649,3.84201l-3.57451,-2.37555l0,0z" id="svg_28" class="GUGJbTih_27"></path>
   <path fill="#FFFA8D" stroke="#FFFA8D" stroke-width="1.5" d="m114.31608,191.43633l-3.5737,2.37445l1.36609,-3.84091l-3.5729,-2.37445l4.41644,0.00073l1.1738,-3.30267l0.19148,-0.5364l1.36367,3.83834l4.41764,0l-3.5745,2.37445l1.36649,3.84201l-3.57451,-2.37555l0,0z" id="svg_29" class="GUGJbTih_28"></path>
   <path fill="#FFFA8D" stroke="#FFFA8D" stroke-width="1.5" d="m114.31608,231.43633l-3.5737,2.37445l1.36609,-3.84091l-3.5729,-2.37445l4.41644,0.00073l1.1738,-3.30267l0.19148,-0.5364l1.36367,3.83834l4.41764,0l-3.5745,2.37445l1.36649,3.84201l-3.57451,-2.37555l0,0z" id="svg_30" class="GUGJbTih_29"></path>
   <path fill="#FFFA8D" stroke="#FFFA8D" stroke-width="1.5" d="m114.31608,271.43633l-3.5737,2.37445l1.36609,-3.84091l-3.5729,-2.37445l4.41644,0.00073l1.1738,-3.30267l0.19148,-0.5364l1.36367,3.83834l4.41764,0l-3.5745,2.37445l1.36649,3.84201l-3.57451,-2.37555l0,0z" id="svg_31" class="GUGJbTih_30"></path>
   <path fill="#FFFA8D" stroke="#FFFA8D" stroke-width="1.5" d="m114.31608,291.43633l-3.5737,2.37445l1.36609,-3.84091l-3.5729,-2.37445l4.41644,0.00073l1.1738,-3.30267l0.19148,-0.5364l1.36367,3.83834l4.41764,0l-3.5745,2.37445l1.36649,3.84201l-3.57451,-2.37555l0,0z" id="svg_32" class="GUGJbTih_31"></path>
   <path fill="#DDDDDD" stroke="#DDDDDD" stroke-width="1.5" width="194.057957" height="13.574002" id="svg_33" d="M 345.597477,96.707044 L 535.655434,96.707044 A 2,2,0,0,1,537.655434,98.707044 L 537.655434,108.281046 A 2,2,0,0,1,535.655434,110.281046 L 345.597477,110.281046 A 2,2,0,0,1,343.597477,108.281046 L 343.597477,98.707044 A 2,2,0,0,1,345.597477,96.707044" class="GUGJbTih_32"></path>
   <path fill="#BBBBBB" stroke="#BBBBBB" stroke-width="1.5" width="185.511363" height="8.546594" id="svg_34" d="M 348.165997,114.970163 L 529.67736,114.970163 A 2,2,0,0,1,531.67736,116.970163 L 531.67736,121.516757 A 2,2,0,0,1,529.67736,123.516757 L 348.165997,123.516757 A 2,2,0,0,1,346.165997,121.516757 L 346.165997,116.970163 A 2,2,0,0,1,348.165997,114.970163" class="GUGJbTih_33"></path>
   <path fill="#BBBBBB" stroke-width="1.5" stroke-opacity="null" fill-opacity="null" width="29.158966" height="13.071261" id="svg_35" stroke="#BBBBBB" d="M 347.360994,132.401643 L 372.51996,132.401643 A 2,2,0,0,1,374.51996,134.401643 L 374.51996,143.472904 A 2,2,0,0,1,372.51996,145.472904 L 347.360994,145.472904 A 2,2,0,0,1,345.360994,143.472904 L 345.360994,134.401643 A 2,2,0,0,1,347.360994,132.401643" class="GUGJbTih_34"></path>
   <path fill="#BBBBBB" stroke-width="1.5" stroke-opacity="null" fill-opacity="null" width="29.158966" height="13.071261" id="svg_36" stroke="#BBBBBB" d="M 387.863735,132.401643 L 413.02270100000004,132.401643 A 2,2,0,0,1,415.02270100000004,134.401643 L 415.02270100000004,143.472904 A 2,2,0,0,1,413.02270100000004,145.472904 L 387.863735,145.472904 A 2,2,0,0,1,385.863735,143.472904 L 385.863735,134.401643 A 2,2,0,0,1,387.863735,132.401643" class="GUGJbTih_35"></path>
   <path fill="#BBBBBB" stroke-width="1.5" stroke-opacity="null" fill-opacity="null" width="29.158966" height="13.071261" id="svg_37" stroke="#BBBBBB" d="M 427.360994,132.401643 L 452.51996,132.401643 A 2,2,0,0,1,454.51996,134.401643 L 454.51996,143.472904 A 2,2,0,0,1,452.51996,145.472904 L 427.360994,145.472904 A 2,2,0,0,1,425.360994,143.472904 L 425.360994,134.401643 A 2,2,0,0,1,427.360994,132.401643" class="GUGJbTih_36"></path>
   <path fill="#BBBBBB" stroke-width="1.5" stroke-opacity="null" fill-opacity="null" width="29.158966" height="13.071261" id="svg_38" stroke="#BBBBBB" d="M 467.360994,132.401643 L 492.51996,132.401643 A 2,2,0,0,1,494.51996,134.401643 L 494.51996,143.472904 A 2,2,0,0,1,492.51996,145.472904 L 467.360994,145.472904 A 2,2,0,0,1,465.360994,143.472904 L 465.360994,134.401643 A 2,2,0,0,1,467.360994,132.401643" class="GUGJbTih_37"></path>
   <path fill="#BBBBBB" stroke-width="1.5" stroke-opacity="null" fill-opacity="null" width="29.158966" height="13.071261" id="svg_39" stroke="#BBBBBB" d="M 507.360994,132.401643 L 532.51996,132.401643 A 2,2,0,0,1,534.51996,134.401643 L 534.51996,143.472904 A 2,2,0,0,1,532.51996,145.472904 L 507.360994,145.472904 A 2,2,0,0,1,505.360994,143.472904 L 505.360994,134.401643 A 2,2,0,0,1,507.360994,132.401643" class="GUGJbTih_38"></path>
   <path fill="#ffffff" stroke="#000000" stroke-width="1.5" width="190.036031" height="141.270171" id="svg_40" d="M345.360996 152.008535 L535.397027 152.008535 L535.397027 293.278706 L345.360996 293.278706 Z" class="GUGJbTih_39"></path>
   <path fill="#ffffff" stroke-width="1.5" stroke-opacity="null" width="190.036031" height="10.557558" id="svg_41" stroke="#000" d="M345.360995 152.008534 L535.397026 152.008534 L535.397026 162.566092 L345.360995 162.566092 Z" class="GUGJbTih_40"></path>
   <path fill="#ffffff" stroke-width="1.5" stroke-opacity="null" width="190.036031" height="10.557558" id="svg_42" stroke="#000" d="M345.360995 162.008534 L535.397026 162.008534 L535.397026 172.566092 L345.360995 172.566092 Z" class="GUGJbTih_41"></path>
   <path fill="#ffffff" stroke-width="1.5" stroke-opacity="null" width="190.036031" height="10.557558" id="svg_43" stroke="#000" d="M345.360995 292.008534 L535.397026 292.008534 L535.397026 302.566092 L345.360995 302.566092 Z" class="GUGJbTih_42"></path>
   <path fill="none" stroke="#000000" stroke-width="1.5" id="svg_44" stroke-linejoin="null" stroke-linecap="null" d="M349.382922,297.803373L366.978851,297.803373" class="GUGJbTih_43"></path>
   <path fill="none" stroke="#000000" stroke-width="1.5" id="svg_48" stroke-linejoin="null" stroke-linecap="null" d="M369.382922,297.803373L386.978851,297.803373" class="GUGJbTih_44"></path>
   <path fill="none" stroke="#000000" stroke-width="1.5" id="svg_49" stroke-linejoin="null" stroke-linecap="null" d="M389.382922,297.803373L406.978851,297.803373" class="GUGJbTih_45"></path>
   <path fill="none" stroke="#000000" stroke-width="1.5" fill-opacity="null" id="svg_50" stroke-linejoin="null" stroke-linecap="null" d="M352.399367,181.167503L436.859825,181.670243" class="GUGJbTih_46"></path>
   <path fill="none" stroke="#000000" stroke-width="1.5" fill-opacity="null" id="svg_51" stroke-linejoin="null" stroke-linecap="null" d="M349.885663,191.72506L525.844951,191.222319" class="GUGJbTih_47"></path>
   <path fill="none" stroke="#000000" stroke-width="1.5" fill-opacity="null" id="svg_52" stroke-linejoin="null" stroke-linecap="null" d="M349.885663,201.72506L525.844951,201.222319" class="GUGJbTih_48"></path>
   <path fill="none" stroke="#000000" stroke-width="1.5" fill-opacity="null" id="svg_53" stroke-linejoin="null" stroke-linecap="null" d="M349.885663,211.72506L525.844951,211.222319" class="GUGJbTih_49"></path>
   <path fill="none" stroke="#000000" stroke-width="1.5" fill-opacity="null" id="svg_54" stroke-linejoin="null" stroke-linecap="null" d="M349.885663,261.72506L525.844951,261.222319" class="GUGJbTih_50"></path>
   <path fill="none" stroke-width="1.5" fill-opacity="null" id="svg_55" stroke-linejoin="null" stroke-linecap="null" stroke="#000000" d="M349.88566,271.72506L483.614727,271.222319" class="GUGJbTih_51"></path>
   <path fill="#DDDDDD" stroke="#DDDDDD" stroke-width="1.5" width="10.557557" height="36.70008" id="svg_56" d="M357.929516 219.375805 L368.48707299999995 219.375805 L368.48707299999995 256.075885 L357.929516 256.075885 Z" class="GUGJbTih_52"></path>
   <path fill="#DDDDDD" stroke-width="1.5" width="10.557557" height="26.142526" id="svg_57" stroke="#DDDDDD" d="M377.929516 229.933361 L388.48707299999995 229.933361 L388.48707299999995 256.07588699999997 L377.929516 256.07588699999997 Z" class="GUGJbTih_53"></path>
   <path fill="#DDDDDD" stroke-width="1.5" width="10.557557" height="15.082229" id="svg_58" stroke="#DDDDDD" d="M397.929516 240.993659 L408.48707299999995 240.993659 L408.48707299999995 256.075888 L397.929516 256.075888 Z" class="GUGJbTih_54"></path>
   <path fill="#DDDDDD" stroke-width="1.5" width="10.557557" height="28.656229" id="svg_59" stroke="#DDDDDD" d="M417.929516 227.419657 L428.48707299999995 227.419657 L428.48707299999995 256.075886 L417.929516 256.075886 Z" class="GUGJbTih_55"></path>
   <path fill="#DDDDDD" stroke-width="1.5" width="10.557557" height="12.568526" id="svg_60" stroke="#DDDDDD" d="M437.929516 243.507363 L448.48707299999995 243.507363 L448.48707299999995 256.075889 L437.929516 256.075889 Z" class="GUGJbTih_56"></path>
   <path fill="#DDDDDD" stroke-width="1.5" width="10.557557" height="18.601414" id="svg_61" stroke="#DDDDDD" d="M457.929516 237.474474 L468.48707299999995 237.474474 L468.48707299999995 256.07588799999996 L457.929516 256.07588799999996 Z" class="GUGJbTih_57"></path>
   <path fill="#DDDDDD" stroke-width="1.5" width="10.557557" height="29.661709" id="svg_62" stroke="#DDDDDD" d="M477.929516 226.414177 L488.48707299999995 226.414177 L488.48707299999995 256.07588599999997 L477.929516 256.07588599999997 Z" class="GUGJbTih_58"></path>
   <path fill="#DDDDDD" stroke="#DDDDDD" stroke-width="1.5" width="10.557557" height="36.70008" id="svg_63" d="M357.929516 219.375805 L368.48707299999995 219.375805 L368.48707299999995 256.075885 L357.929516 256.075885 Z" class="GUGJbTih_59"></path>
   <path fill="#9acee6" stroke="#9acee6" stroke-width="1.5" width="21.115115" height="9.049335" id="svg_64" d="M 507.735318,99.723489 L 524.850433,99.723489 A 2,2,0,0,1,526.850433,101.723489 L 526.850433,106.772824 A 2,2,0,0,1,524.850433,108.772824 L 507.735318,108.772824 A 2,2,0,0,1,505.735318,106.772824 L 505.735318,101.723489 A 2,2,0,0,1,507.735318,99.723489" class="GUGJbTih_60"></path>
   <path fill="none" stroke="#000000" stroke-width="1.5" id="svg_65" stroke-linejoin="null" stroke-linecap="null" d="M361.448702,102.739934L475.068128,102.739934" class="GUGJbTih_61"></path>
   <text fill="#3ecf8e" stroke-width="0" x="87.506731" y="74.490321" id="svg_66" font-size="24" font-family="Helvetica, Arial, sans-serif" text-anchor="start" xml:space="preserve" transform="matrix(0.721000611782074,0,0,0.6727924346923828,79.66304406709969,13.712042033672333) " stroke="#3ecf8e">TaskR</text>
  </g>
 </g>
<style data-made-with="vivus-instant">.GUGJbTih_0{stroke-dasharray:2076 2078;stroke-dashoffset:2077;animation:GUGJbTih_draw_0 7400ms ease-in-out 0ms infinite,GUGJbTih_fade 7400ms linear 0ms infinite;}.GUGJbTih_1{stroke-dasharray:1677 1679;stroke-dashoffset:1678;animation:GUGJbTih_draw_1 7400ms ease-in-out 0ms infinite,GUGJbTih_fade 7400ms linear 0ms infinite;}.GUGJbTih_2{stroke-dasharray:24 26;stroke-dashoffset:25;animation:GUGJbTih_draw_2 7400ms ease-in-out 0ms infinite,GUGJbTih_fade 7400ms linear 0ms infinite;}.GUGJbTih_3{stroke-dasharray:1335 1337;stroke-dashoffset:1336;animation:GUGJbTih_draw_3 7400ms ease-in-out 0ms infinite,GUGJbTih_fade 7400ms linear 0ms infinite;}.GUGJbTih_4{stroke-dasharray:646 648;stroke-dashoffset:647;animation:GUGJbTih_draw_4 7400ms ease-in-out 0ms infinite,GUGJbTih_fade 7400ms linear 0ms infinite;}.GUGJbTih_5{stroke-dasharray:1523 1525;stroke-dashoffset:1524;animation:GUGJbTih_draw_5 7400ms ease-in-out 0ms infinite,GUGJbTih_fade 7400ms linear 0ms infinite;}.GUGJbTih_6{stroke-dasharray:150 152;stroke-dashoffset:151;animation:GUGJbTih_draw_6 7400ms ease-in-out 0ms infinite,GUGJbTih_fade 7400ms linear 0ms infinite;}.GUGJbTih_7{stroke-dasharray:1657 1659;stroke-dashoffset:1658;animation:GUGJbTih_draw_7 7400ms ease-in-out 0ms infinite,GUGJbTih_fade 7400ms linear 0ms infinite;}.GUGJbTih_8{stroke-dasharray:1523 1525;stroke-dashoffset:1524;animation:GUGJbTih_draw_8 7400ms ease-in-out 0ms infinite,GUGJbTih_fade 7400ms linear 0ms infinite;}.GUGJbTih_9{stroke-dasharray:993 995;stroke-dashoffset:994;animation:GUGJbTih_draw_9 7400ms ease-in-out 0ms infinite,GUGJbTih_fade 7400ms linear 0ms infinite;}.GUGJbTih_10{stroke-dasharray:937 939;stroke-dashoffset:938;animation:GUGJbTih_draw_10 7400ms ease-in-out 0ms infinite,GUGJbTih_fade 7400ms linear 0ms infinite;}.GUGJbTih_11{stroke-dasharray:943 945;stroke-dashoffset:944;animation:GUGJbTih_draw_11 7400ms ease-in-out 0ms infinite,GUGJbTih_fade 7400ms linear 0ms infinite;}.GUGJbTih_12{stroke-dasharray:46 48;stroke-dashoffset:47;animation:GUGJbTih_draw_12 7400ms ease-in-out 0ms infinite,GUGJbTih_fade 7400ms linear 0ms infinite;}.GUGJbTih_13{stroke-dasharray:18 20;stroke-dashoffset:19;animation:GUGJbTih_draw_13 7400ms ease-in-out 0ms infinite,GUGJbTih_fade 7400ms linear 0ms infinite;}.GUGJbTih_14{stroke-dasharray:18 20;stroke-dashoffset:19;animation:GUGJbTih_draw_14 7400ms ease-in-out 0ms infinite,GUGJbTih_fade 7400ms linear 0ms infinite;}.GUGJbTih_15{stroke-dasharray:18 20;stroke-dashoffset:19;animation:GUGJbTih_draw_15 7400ms ease-in-out 0ms infinite,GUGJbTih_fade 7400ms linear 0ms infinite;}.GUGJbTih_16{stroke-dasharray:412 414;stroke-dashoffset:413;animation:GUGJbTih_draw_16 7400ms ease-in-out 0ms infinite,GUGJbTih_fade 7400ms linear 0ms infinite;}.GUGJbTih_17{stroke-dasharray:424 426;stroke-dashoffset:425;animation:GUGJbTih_draw_17 7400ms ease-in-out 0ms infinite,GUGJbTih_fade 7400ms linear 0ms infinite;}.GUGJbTih_18{stroke-dasharray:385 387;stroke-dashoffset:386;animation:GUGJbTih_draw_18 7400ms ease-in-out 0ms infinite,GUGJbTih_fade 7400ms linear 0ms infinite;}.GUGJbTih_19{stroke-dasharray:385 387;stroke-dashoffset:386;animation:GUGJbTih_draw_19 7400ms ease-in-out 0ms infinite,GUGJbTih_fade 7400ms linear 0ms infinite;}.GUGJbTih_20{stroke-dasharray:385 387;stroke-dashoffset:386;animation:GUGJbTih_draw_20 7400ms ease-in-out 0ms infinite,GUGJbTih_fade 7400ms linear 0ms infinite;}.GUGJbTih_21{stroke-dasharray:385 387;stroke-dashoffset:386;animation:GUGJbTih_draw_21 7400ms ease-in-out 0ms infinite,GUGJbTih_fade 7400ms linear 0ms infinite;}.GUGJbTih_22{stroke-dasharray:385 387;stroke-dashoffset:386;animation:GUGJbTih_draw_22 7400ms ease-in-out 0ms infinite,GUGJbTih_fade 7400ms linear 0ms infinite;}.GUGJbTih_23{stroke-dasharray:385 387;stroke-dashoffset:386;animation:GUGJbTih_draw_23 7400ms ease-in-out 0ms infinite,GUGJbTih_fade 7400ms linear 0ms infinite;}.GUGJbTih_24{stroke-dasharray:385 387;stroke-dashoffset:386;animation:GUGJbTih_draw_24 7400ms ease-in-out 0ms infinite,GUGJbTih_fade 7400ms linear 0ms infinite;}.GUGJbTih_25{stroke-dasharray:385 387;stroke-dashoffset:386;animation:GUGJbTih_draw_25 7400ms ease-in-out 0ms infinite,GUGJbTih_fade 7400ms linear 0ms infinite;}.GUGJbTih_26{stroke-dasharray:43 45;stroke-dashoffset:44;animation:GUGJbTih_draw_26 7400ms ease-in-out 0ms infinite,GUGJbTih_fade 7400ms linear 0ms infinite;}.GUGJbTih_27{stroke-dasharray:43 45;stroke-dashoffset:44;animation:GUGJbTih_draw_27 7400ms ease-in-out 0ms infinite,GUGJbTih_fade 7400ms linear 0ms infinite;}.GUGJbTih_28{stroke-dasharray:43 45;stroke-dashoffset:44;animation:GUGJbTih_draw_28 7400ms ease-in-out 0ms infinite,GUGJbTih_fade 7400ms linear 0ms infinite;}.GUGJbTih_29{stroke-dasharray:43 45;stroke-dashoffset:44;animation:GUGJbTih_draw_29 7400ms ease-in-out 0ms infinite,GUGJbTih_fade 7400ms linear 0ms infinite;}.GUGJbTih_30{stroke-dasharray:43 45;stroke-dashoffset:44;animation:GUGJbTih_draw_30 7400ms ease-in-out 0ms infinite,GUGJbTih_fade 7400ms linear 0ms infinite;}.GUGJbTih_31{stroke-dasharray:43 45;stroke-dashoffset:44;animation:GUGJbTih_draw_31 7400ms ease-in-out 0ms infinite,GUGJbTih_fade 7400ms linear 0ms infinite;}.GUGJbTih_32{stroke-dasharray:412 414;stroke-dashoffset:413;animation:GUGJbTih_draw_32 7400ms ease-in-out 0ms infinite,GUGJbTih_fade 7400ms linear 0ms infinite;}.GUGJbTih_33{stroke-dasharray:385 387;stroke-dashoffset:386;animation:GUGJbTih_draw_33 7400ms ease-in-out 0ms infinite,GUGJbTih_fade 7400ms linear 0ms infinite;}.GUGJbTih_34{stroke-dasharray:82 84;stroke-dashoffset:83;animation:GUGJbTih_draw_34 7400ms ease-in-out 0ms infinite,GUGJbTih_fade 7400ms linear 0ms infinite;}.GUGJbTih_35{stroke-dasharray:82 84;stroke-dashoffset:83;animation:GUGJbTih_draw_35 7400ms ease-in-out 0ms infinite,GUGJbTih_fade 7400ms linear 0ms infinite;}.GUGJbTih_36{stroke-dasharray:82 84;stroke-dashoffset:83;animation:GUGJbTih_draw_36 7400ms ease-in-out 0ms infinite,GUGJbTih_fade 7400ms linear 0ms infinite;}.GUGJbTih_37{stroke-dasharray:82 84;stroke-dashoffset:83;animation:GUGJbTih_draw_37 7400ms ease-in-out 0ms infinite,GUGJbTih_fade 7400ms linear 0ms infinite;}.GUGJbTih_38{stroke-dasharray:82 84;stroke-dashoffset:83;animation:GUGJbTih_draw_38 7400ms ease-in-out 0ms infinite,GUGJbTih_fade 7400ms linear 0ms infinite;}.GUGJbTih_39{stroke-dasharray:663 665;stroke-dashoffset:664;animation:GUGJbTih_draw_39 7400ms ease-in-out 0ms infinite,GUGJbTih_fade 7400ms linear 0ms infinite;}.GUGJbTih_40{stroke-dasharray:402 404;stroke-dashoffset:403;animation:GUGJbTih_draw_40 7400ms ease-in-out 0ms infinite,GUGJbTih_fade 7400ms linear 0ms infinite;}.GUGJbTih_41{stroke-dasharray:402 404;stroke-dashoffset:403;animation:GUGJbTih_draw_41 7400ms ease-in-out 0ms infinite,GUGJbTih_fade 7400ms linear 0ms infinite;}.GUGJbTih_42{stroke-dasharray:402 404;stroke-dashoffset:403;animation:GUGJbTih_draw_42 7400ms ease-in-out 0ms infinite,GUGJbTih_fade 7400ms linear 0ms infinite;}.GUGJbTih_43{stroke-dasharray:18 20;stroke-dashoffset:19;animation:GUGJbTih_draw_43 7400ms ease-in-out 0ms infinite,GUGJbTih_fade 7400ms linear 0ms infinite;}.GUGJbTih_44{stroke-dasharray:18 20;stroke-dashoffset:19;animation:GUGJbTih_draw_44 7400ms ease-in-out 0ms infinite,GUGJbTih_fade 7400ms linear 0ms infinite;}.GUGJbTih_45{stroke-dasharray:18 20;stroke-dashoffset:19;animation:GUGJbTih_draw_45 7400ms ease-in-out 0ms infinite,GUGJbTih_fade 7400ms linear 0ms infinite;}.GUGJbTih_46{stroke-dasharray:85 87;stroke-dashoffset:86;animation:GUGJbTih_draw_46 7400ms ease-in-out 0ms infinite,GUGJbTih_fade 7400ms linear 0ms infinite;}.GUGJbTih_47{stroke-dasharray:176 178;stroke-dashoffset:177;animation:GUGJbTih_draw_47 7400ms ease-in-out 0ms infinite,GUGJbTih_fade 7400ms linear 0ms infinite;}.GUGJbTih_48{stroke-dasharray:176 178;stroke-dashoffset:177;animation:GUGJbTih_draw_48 7400ms ease-in-out 0ms infinite,GUGJbTih_fade 7400ms linear 0ms infinite;}.GUGJbTih_49{stroke-dasharray:176 178;stroke-dashoffset:177;animation:GUGJbTih_draw_49 7400ms ease-in-out 0ms infinite,GUGJbTih_fade 7400ms linear 0ms infinite;}.GUGJbTih_50{stroke-dasharray:176 178;stroke-dashoffset:177;animation:GUGJbTih_draw_50 7400ms ease-in-out 0ms infinite,GUGJbTih_fade 7400ms linear 0ms infinite;}.GUGJbTih_51{stroke-dasharray:134 136;stroke-dashoffset:135;animation:GUGJbTih_draw_51 7400ms ease-in-out 0ms infinite,GUGJbTih_fade 7400ms linear 0ms infinite;}.GUGJbTih_52{stroke-dasharray:95 97;stroke-dashoffset:96;animation:GUGJbTih_draw_52 7400ms ease-in-out 0ms infinite,GUGJbTih_fade 7400ms linear 0ms infinite;}.GUGJbTih_53{stroke-dasharray:74 76;stroke-dashoffset:75;animation:GUGJbTih_draw_53 7400ms ease-in-out 0ms infinite,GUGJbTih_fade 7400ms linear 0ms infinite;}.GUGJbTih_54{stroke-dasharray:52 54;stroke-dashoffset:53;animation:GUGJbTih_draw_54 7400ms ease-in-out 0ms infinite,GUGJbTih_fade 7400ms linear 0ms infinite;}.GUGJbTih_55{stroke-dasharray:79 81;stroke-dashoffset:80;animation:GUGJbTih_draw_55 7400ms ease-in-out 0ms infinite,GUGJbTih_fade 7400ms linear 0ms infinite;}.GUGJbTih_56{stroke-dasharray:47 49;stroke-dashoffset:48;animation:GUGJbTih_draw_56 7400ms ease-in-out 0ms infinite,GUGJbTih_fade 7400ms linear 0ms infinite;}.GUGJbTih_57{stroke-dasharray:59 61;stroke-dashoffset:60;animation:GUGJbTih_draw_57 7400ms ease-in-out 0ms infinite,GUGJbTih_fade 7400ms linear 0ms infinite;}.GUGJbTih_58{stroke-dasharray:81 83;stroke-dashoffset:82;animation:GUGJbTih_draw_58 7400ms ease-in-out 0ms infinite,GUGJbTih_fade 7400ms linear 0ms infinite;}.GUGJbTih_59{stroke-dasharray:95 97;stroke-dashoffset:96;animation:GUGJbTih_draw_59 7400ms ease-in-out 0ms infinite,GUGJbTih_fade 7400ms linear 0ms infinite;}.GUGJbTih_60{stroke-dasharray:57 59;stroke-dashoffset:58;animation:GUGJbTih_draw_60 7400ms ease-in-out 0ms infinite,GUGJbTih_fade 7400ms linear 0ms infinite;}.GUGJbTih_61{stroke-dasharray:114 116;stroke-dashoffset:115;animation:GUGJbTih_draw_61 7400ms ease-in-out 0ms infinite,GUGJbTih_fade 7400ms linear 0ms infinite;}@keyframes GUGJbTih_draw{100%{stroke-dashoffset:0;}}@keyframes GUGJbTih_fade{0%{stroke-opacity:1;}91.89189189189189%{stroke-opacity:1;}100%{stroke-opacity:0;}}@keyframes GUGJbTih_draw_0{10.81081081081081%{stroke-dashoffset: 2077}37.83783783783784%{ stroke-dashoffset: 0;}100%{ stroke-dashoffset: 0;}}@keyframes GUGJbTih_draw_1{11.032343819229066%{stroke-dashoffset: 1678}38.059370846256094%{ stroke-dashoffset: 0;}100%{ stroke-dashoffset: 0;}}@keyframes GUGJbTih_draw_2{11.25387682764732%{stroke-dashoffset: 25}38.28090385467434%{ stroke-dashoffset: 0;}100%{ stroke-dashoffset: 0;}}@keyframes GUGJbTih_draw_3{11.475409836065573%{stroke-dashoffset: 1336}38.502436863092605%{ stroke-dashoffset: 0;}100%{ stroke-dashoffset: 0;}}@keyframes GUGJbTih_draw_4{11.696942844483829%{stroke-dashoffset: 647}38.72396987151085%{ stroke-dashoffset: 0;}100%{ stroke-dashoffset: 0;}}@keyframes GUGJbTih_draw_5{11.918475852902082%{stroke-dashoffset: 1524}38.94550287992911%{ stroke-dashoffset: 0;}100%{ stroke-dashoffset: 0;}}@keyframes GUGJbTih_draw_6{12.140008861320338%{stroke-dashoffset: 151}39.16703588834737%{ stroke-dashoffset: 0;}100%{ stroke-dashoffset: 0;}}@keyframes GUGJbTih_draw_7{12.361541869738591%{stroke-dashoffset: 1658}39.38856889676562%{ stroke-dashoffset: 0;}100%{ stroke-dashoffset: 0;}}@keyframes GUGJbTih_draw_8{12.583074878156845%{stroke-dashoffset: 1524}39.610101905183875%{ stroke-dashoffset: 0;}100%{ stroke-dashoffset: 0;}}@keyframes GUGJbTih_draw_9{12.8046078865751%{stroke-dashoffset: 994}39.83163491360212%{ stroke-dashoffset: 0;}100%{ stroke-dashoffset: 0;}}@keyframes GUGJbTih_draw_10{13.026140894993354%{stroke-dashoffset: 938}40.05316792202038%{ stroke-dashoffset: 0;}100%{ stroke-dashoffset: 0;}}@keyframes GUGJbTih_draw_11{13.247673903411608%{stroke-dashoffset: 944}40.274700930438634%{ stroke-dashoffset: 0;}100%{ stroke-dashoffset: 0;}}@keyframes GUGJbTih_draw_12{13.469206911829861%{stroke-dashoffset: 47}40.49623393885689%{ stroke-dashoffset: 0;}100%{ stroke-dashoffset: 0;}}@keyframes GUGJbTih_draw_13{13.690739920248118%{stroke-dashoffset: 19}40.717766947275145%{ stroke-dashoffset: 0;}100%{ stroke-dashoffset: 0;}}@keyframes GUGJbTih_draw_14{13.912272928666368%{stroke-dashoffset: 19}40.9392999556934%{ stroke-dashoffset: 0;}100%{ stroke-dashoffset: 0;}}@keyframes GUGJbTih_draw_15{14.133805937084626%{stroke-dashoffset: 19}41.160832964111655%{ stroke-dashoffset: 0;}100%{ stroke-dashoffset: 0;}}@keyframes GUGJbTih_draw_16{14.35533894550288%{stroke-dashoffset: 413}41.38236597252991%{ stroke-dashoffset: 0;}100%{ stroke-dashoffset: 0;}}@keyframes GUGJbTih_draw_17{14.576871953921136%{stroke-dashoffset: 425}41.60389898094816%{ stroke-dashoffset: 0;}100%{ stroke-dashoffset: 0;}}@keyframes GUGJbTih_draw_18{14.798404962339387%{stroke-dashoffset: 386}41.825431989366415%{ stroke-dashoffset: 0;}100%{ stroke-dashoffset: 0;}}@keyframes GUGJbTih_draw_19{15.01993797075764%{stroke-dashoffset: 386}42.04696499778467%{ stroke-dashoffset: 0;}100%{ stroke-dashoffset: 0;}}@keyframes GUGJbTih_draw_20{15.241470979175897%{stroke-dashoffset: 386}42.26849800620292%{ stroke-dashoffset: 0;}100%{ stroke-dashoffset: 0;}}@keyframes GUGJbTih_draw_21{15.463003987594155%{stroke-dashoffset: 386}42.49003101462118%{ stroke-dashoffset: 0;}100%{ stroke-dashoffset: 0;}}@keyframes GUGJbTih_draw_22{15.684536996012405%{stroke-dashoffset: 386}42.711564023039436%{ stroke-dashoffset: 0;}100%{ stroke-dashoffset: 0;}}@keyframes GUGJbTih_draw_23{15.906070004430658%{stroke-dashoffset: 386}42.933097031457685%{ stroke-dashoffset: 0;}100%{ stroke-dashoffset: 0;}}@keyframes GUGJbTih_draw_24{16.127603012848915%{stroke-dashoffset: 386}43.15463003987595%{ stroke-dashoffset: 0;}100%{ stroke-dashoffset: 0;}}@keyframes GUGJbTih_draw_25{16.349136021267167%{stroke-dashoffset: 386}43.376163048294195%{ stroke-dashoffset: 0;}100%{ stroke-dashoffset: 0;}}@keyframes GUGJbTih_draw_26{16.570669029685423%{stroke-dashoffset: 44}43.59769605671245%{ stroke-dashoffset: 0;}100%{ stroke-dashoffset: 0;}}@keyframes GUGJbTih_draw_27{16.792202038103675%{stroke-dashoffset: 44}43.819229065130706%{ stroke-dashoffset: 0;}100%{ stroke-dashoffset: 0;}}@keyframes GUGJbTih_draw_28{17.013735046521933%{stroke-dashoffset: 44}44.040762073548954%{ stroke-dashoffset: 0;}100%{ stroke-dashoffset: 0;}}@keyframes GUGJbTih_draw_29{17.235268054940185%{stroke-dashoffset: 44}44.26229508196721%{ stroke-dashoffset: 0;}100%{ stroke-dashoffset: 0;}}@keyframes GUGJbTih_draw_30{17.45680106335844%{stroke-dashoffset: 44}44.48382809038547%{ stroke-dashoffset: 0;}100%{ stroke-dashoffset: 0;}}@keyframes GUGJbTih_draw_31{17.678334071776693%{stroke-dashoffset: 44}44.70536109880372%{ stroke-dashoffset: 0;}100%{ stroke-dashoffset: 0;}}@keyframes GUGJbTih_draw_32{17.899867080194948%{stroke-dashoffset: 413}44.926894107221976%{ stroke-dashoffset: 0;}100%{ stroke-dashoffset: 0;}}@keyframes GUGJbTih_draw_33{18.121400088613203%{stroke-dashoffset: 386}45.14842711564023%{ stroke-dashoffset: 0;}100%{ stroke-dashoffset: 0;}}@keyframes GUGJbTih_draw_34{18.34293309703146%{stroke-dashoffset: 83}45.36996012405849%{ stroke-dashoffset: 0;}100%{ stroke-dashoffset: 0;}}@keyframes GUGJbTih_draw_35{18.56446610544971%{stroke-dashoffset: 83}45.59149313247674%{ stroke-dashoffset: 0;}100%{ stroke-dashoffset: 0;}}@keyframes GUGJbTih_draw_36{18.785999113867966%{stroke-dashoffset: 83}45.81302614089499%{ stroke-dashoffset: 0;}100%{ stroke-dashoffset: 0;}}@keyframes GUGJbTih_draw_37{19.00753212228622%{stroke-dashoffset: 83}46.03455914931324%{ stroke-dashoffset: 0;}100%{ stroke-dashoffset: 0;}}@keyframes GUGJbTih_draw_38{19.229065130704473%{stroke-dashoffset: 83}46.2560921577315%{ stroke-dashoffset: 0;}100%{ stroke-dashoffset: 0;}}@keyframes GUGJbTih_draw_39{19.45059813912273%{stroke-dashoffset: 664}46.47762516614976%{ stroke-dashoffset: 0;}100%{ stroke-dashoffset: 0;}}@keyframes GUGJbTih_draw_40{19.672131147540984%{stroke-dashoffset: 403}46.69915817456801%{ stroke-dashoffset: 0;}100%{ stroke-dashoffset: 0;}}@keyframes GUGJbTih_draw_41{19.893664155959236%{stroke-dashoffset: 403}46.92069118298626%{ stroke-dashoffset: 0;}100%{ stroke-dashoffset: 0;}}@keyframes GUGJbTih_draw_42{20.11519716437749%{stroke-dashoffset: 403}47.142224191404516%{ stroke-dashoffset: 0;}100%{ stroke-dashoffset: 0;}}@keyframes GUGJbTih_draw_43{20.336730172795747%{stroke-dashoffset: 19}47.36375719982278%{ stroke-dashoffset: 0;}100%{ stroke-dashoffset: 0;}}@keyframes GUGJbTih_draw_44{20.558263181214002%{stroke-dashoffset: 19}47.58529020824103%{ stroke-dashoffset: 0;}100%{ stroke-dashoffset: 0;}}@keyframes GUGJbTih_draw_45{20.77979618963225%{stroke-dashoffset: 19}47.806823216659275%{ stroke-dashoffset: 0;}100%{ stroke-dashoffset: 0;}}@keyframes GUGJbTih_draw_46{21.00132919805051%{stroke-dashoffset: 86}48.02835622507754%{ stroke-dashoffset: 0;}100%{ stroke-dashoffset: 0;}}@keyframes GUGJbTih_draw_47{21.222862206468765%{stroke-dashoffset: 177}48.24988923349579%{ stroke-dashoffset: 0;}100%{ stroke-dashoffset: 0;}}@keyframes GUGJbTih_draw_48{21.44439521488702%{stroke-dashoffset: 177}48.47142224191405%{ stroke-dashoffset: 0;}100%{ stroke-dashoffset: 0;}}@keyframes GUGJbTih_draw_49{21.66592822330527%{stroke-dashoffset: 177}48.6929552503323%{ stroke-dashoffset: 0;}100%{ stroke-dashoffset: 0;}}@keyframes GUGJbTih_draw_50{21.887461231723524%{stroke-dashoffset: 177}48.91448825875055%{ stroke-dashoffset: 0;}100%{ stroke-dashoffset: 0;}}@keyframes GUGJbTih_draw_51{22.10899424014178%{stroke-dashoffset: 135}49.136021267168815%{ stroke-dashoffset: 0;}100%{ stroke-dashoffset: 0;}}@keyframes GUGJbTih_draw_52{22.330527248560035%{stroke-dashoffset: 96}49.35755427558706%{ stroke-dashoffset: 0;}100%{ stroke-dashoffset: 0;}}@keyframes GUGJbTih_draw_53{22.552060256978287%{stroke-dashoffset: 75}49.57908728400531%{ stroke-dashoffset: 0;}100%{ stroke-dashoffset: 0;}}@keyframes GUGJbTih_draw_54{22.773593265396542%{stroke-dashoffset: 53}49.80062029242357%{ stroke-dashoffset: 0;}100%{ stroke-dashoffset: 0;}}@keyframes GUGJbTih_draw_55{22.995126273814797%{stroke-dashoffset: 80}50.02215330084182%{ stroke-dashoffset: 0;}100%{ stroke-dashoffset: 0;}}@keyframes GUGJbTih_draw_56{23.216659282233053%{stroke-dashoffset: 48}50.243686309260084%{ stroke-dashoffset: 0;}100%{ stroke-dashoffset: 0;}}@keyframes GUGJbTih_draw_57{23.438192290651305%{stroke-dashoffset: 60}50.46521931767833%{ stroke-dashoffset: 0;}100%{ stroke-dashoffset: 0;}}@keyframes GUGJbTih_draw_58{23.65972529906956%{stroke-dashoffset: 82}50.68675232609658%{ stroke-dashoffset: 0;}100%{ stroke-dashoffset: 0;}}@keyframes GUGJbTih_draw_59{23.881258307487812%{stroke-dashoffset: 96}50.90828533451484%{ stroke-dashoffset: 0;}100%{ stroke-dashoffset: 0;}}@keyframes GUGJbTih_draw_60{24.102791315906067%{stroke-dashoffset: 58}51.1298183429331%{ stroke-dashoffset: 0;}100%{ stroke-dashoffset: 0;}}@keyframes GUGJbTih_draw_61{24.324324324324326%{stroke-dashoffset: 115}51.35135135135135%{ stroke-dashoffset: 0;}100%{ stroke-dashoffset: 0;}}</style></svg>